<svg xmlns="http://www.w3.org/2000/svg" xmlns:xlink="http://www.w3.org/1999/xlink" viewBox="0 0 151.77 25.36"><defs><style>.cls-1{isolation:isolate;}.cls-2{fill:#253858;stroke:#253858;stroke-miterlimit:10;stroke-width:0.1px;}.cls-3{fill:#e0013f;}.cls-4{mix-blend-mode:multiply;}.cls-5{fill:url(#linear-gradient);}.cls-6{fill:url(#linear-gradient-2);}</style><linearGradient id="linear-gradient" x1="6.57" y1="18.82" x2="11.02" y2="21.38" gradientUnits="userSpaceOnUse"><stop offset="0.14" stop-color="#b4afb3"/><stop offset="0.27" stop-color="#cdc9cc"/><stop offset="0.43" stop-color="#e3e1e2"/><stop offset="0.59" stop-color="#f3f2f2"/><stop offset="0.77" stop-color="#fcfcfc"/><stop offset="1" stop-color="#fff"/></linearGradient><linearGradient id="linear-gradient-2" x1="6.57" y1="6.55" x2="11.02" y2="3.98" gradientUnits="userSpaceOnUse"><stop offset="0.11" stop-color="#b4afb3"/><stop offset="0.25" stop-color="#cdc9cc"/><stop offset="0.41" stop-color="#e3e1e2"/><stop offset="0.58" stop-color="#f3f2f2"/><stop offset="0.77" stop-color="#fcfcfc"/><stop offset="1" stop-color="#fff"/></linearGradient></defs><title>campus365-logo</title><g class="cls-1"><g id="Layer_1" data-name="Layer 1"><g id="Logos"><g id="text854"><path class="cls-2" d="M39.69,8.31l-2,1.32a4.85,4.85,0,0,0-4.1-2.11,5.06,5.06,0,0,0-5.2,4.91c0,.14,0,.28,0,.42a5.06,5.06,0,0,0,4.78,5.33h.42a4.83,4.83,0,0,0,4.09-2.11l1.93,1.42a7.12,7.12,0,0,1-6,3,7.38,7.38,0,0,1-7.68-7.07,4.86,4.86,0,0,1,0-.54,7.38,7.38,0,0,1,7.14-7.61h.54A7,7,0,0,1,39.69,8.31Z"/><path class="cls-2" d="M52,20.19H49.76V19a3.83,3.83,0,0,1-3.16,1.46,5,5,0,0,1-5-5c0-.08,0-.15,0-.23a5,5,0,0,1,4.79-5.28h.23a3.82,3.82,0,0,1,3.16,1.47V10.15H52Zm-8.12-5a3,3,0,0,0,6.06.36,2.16,2.16,0,0,0,0-.36,3,3,0,0,0-6.06-.37v.37Z"/><path class="cls-2" d="M71.87,13.88v6.31H69.66V14.6c0-1.68-.87-2.63-2.33-2.63a2.5,2.5,0,0,0-2.61,2.37,2.53,2.53,0,0,0,0,.28v5.57H62.52V14.6c0-1.68-.87-2.63-2.33-2.63a2.5,2.5,0,0,0-2.61,2.37,2.53,2.53,0,0,0,0,.28v5.57h-2.2v-10h2.18v1.22a3.52,3.52,0,0,1,3.08-1.48,3.94,3.94,0,0,1,3.47,1.79,4.05,4.05,0,0,1,3.67-1.79,3.86,3.86,0,0,1,4.07,3.65C71.87,13.65,71.87,13.77,71.87,13.88Z"/><path class="cls-2" d="M85.56,15.17a5.06,5.06,0,0,1-4.8,5.28h-.23A3.79,3.79,0,0,1,77.39,19v5.38H75.2V10.15h2.19v1.19a3.79,3.79,0,0,1,3.14-1.45,5,5,0,0,1,5,5Zm-8.32,0a3,3,0,0,0,6.06.36,2.16,2.16,0,0,0,0-.36,3,3,0,0,0-6.06-.37A2.28,2.28,0,0,0,77.24,15.17Z"/><path class="cls-2" d="M97.47,15.93c0,3.2-2.3,4.52-4.65,4.52s-4.66-1.32-4.66-4.52V10.15h2.21v5.59c0,1.93,1.08,2.65,2.45,2.65s2.45-.72,2.45-2.65V10.15h2.2Z"/><path class="cls-2" d="M107.64,12.66a6.48,6.48,0,0,0-3.1-.86c-1.2,0-1.9.49-1.9,1.2s.73.9,1.66,1l1,.15c2.19.32,3.49,1.25,3.49,3,0,1.93-1.68,3.28-4.57,3.28A7.34,7.34,0,0,1,100,19.15l1-1.64a5.15,5.15,0,0,0,3.32,1c1.5,0,2.28-.48,2.28-1.23,0-.57-.54-.95-1.74-1.11l-1-.14c-2.22-.3-3.4-1.33-3.4-2.94,0-2,1.59-3.22,4.15-3.22A7.56,7.56,0,0,1,108.59,11Z"/><path class="cls-2" d="M125.89,9.46a3.56,3.56,0,0,1-2.23,3.33,3.67,3.67,0,0,1,2.57,3.41c0,2.86-2.53,4.24-5.19,4.24A6.38,6.38,0,0,1,116,18.35l1.46-1.52A4.89,4.89,0,0,0,121,18.32c1.6,0,2.86-.72,2.86-2.23s-1.43-2.25-3.18-2.25H118.9V11.75h1.76c1.58,0,2.86-.71,2.86-2.18s-1.25-2.19-2.77-2.19a3.63,3.63,0,0,0-3,1.58l-1.64-1.39a5.42,5.42,0,0,1,4.75-2.31C123.89,5.26,125.89,6.93,125.89,9.46Z"/><path class="cls-2" d="M132.66,10.84a4.35,4.35,0,0,1,1.14-.15,4.87,4.87,0,0,1,4.92,4.8h0v.08c0,2.79-2.27,4.87-5.32,4.87s-5.33-2.08-5.33-4.87a6.5,6.5,0,0,1,1.32-3.7l4.23-6.36h2.77Zm-2.24,4.73a3,3,0,1,0,3.19-2.76h-.21a2.78,2.78,0,0,0-3,2.58,1.15,1.15,0,0,0,0,.19Z"/><path class="cls-2" d="M149.88,7.66h-6.14l-.07,3.55h1.93c3.44,0,5,2.1,5,4.4,0,3.18-2.4,4.84-5.15,4.84a6.24,6.24,0,0,1-5.1-2.35l1.51-1.47a4.86,4.86,0,0,0,3.58,1.65,2.5,2.5,0,0,0,2.77-2.19,1.32,1.32,0,0,0,0-.28c0-1.27-.74-2.45-3.36-2.45h-3.38l.14-7.85h8.22Z"/></g></g><path class="cls-3" d="M8.59,15.64l1.78-3-1.78-3a5.7,5.7,0,0,1,9.08-.42l5.54-4.25A12.79,12.79,0,0,0,9.27.94,12.57,12.57,0,0,0,.63,12.68h0A12.55,12.55,0,0,0,9.27,24.41a12.77,12.77,0,0,0,13.94-4.1l-5.54-4.25A5.7,5.7,0,0,1,8.59,15.64Z"/><g class="cls-4"><path class="cls-5" d="M8.59,15.64,4.83,21.83a12.63,12.63,0,0,0,4.44,2.58l2.51-6.5A5.8,5.8,0,0,1,8.59,15.64Z"/><path class="cls-6" d="M9.27.94A12.85,12.85,0,0,0,4.82,3.53L8.59,9.72a5.72,5.72,0,0,1,3.26-2.29Z"/></g></g></g></svg>